<svg width="165" height="50" viewBox="0 0 165 50" fill="none" xmlns="http://www.w3.org/2000/svg">
<path d="M0 20C0 8.9543 8.95431 0 20 0H145C156.046 0 165 8.95431 165 20V50H0V20Z" fill="#DDD0A4"/>
<path d="M54.8359 15.6875V11.0596H52.4707L52.2861 13.623C52.2269 14.5208 52.0423 15.1908 51.7324 15.6328V15.6875H54.8359ZM50.9326 18.8936H49.374V15.6875H49.9482C50.4131 15.4141 50.6865 14.6963 50.7686 13.5342L51.0215 9.75391H56.5312V15.6875H57.6318V18.8936H56.0732V17H50.9326V18.8936ZM64.3311 16.1387C63.6976 16.8086 62.8454 17.1436 61.7744 17.1436C60.7035 17.1436 59.8512 16.8086 59.2178 16.1387C58.5843 15.4642 58.2676 14.5436 58.2676 13.377C58.2676 12.2148 58.5866 11.2965 59.2246 10.6221C59.8626 9.94303 60.7126 9.60352 61.7744 9.60352C62.8408 9.60352 63.6908 9.94303 64.3242 10.6221C64.9622 11.2965 65.2812 12.2148 65.2812 13.377C65.2812 14.5436 64.9645 15.4642 64.3311 16.1387ZM60.4756 15.1611C60.7946 15.585 61.2275 15.7969 61.7744 15.7969C62.3213 15.7969 62.7542 15.585 63.0732 15.1611C63.3923 14.7373 63.5518 14.1426 63.5518 13.377C63.5518 12.6159 63.3923 12.0234 63.0732 11.5996C62.7542 11.1712 62.3213 10.957 61.7744 10.957C61.2321 10.957 60.7992 11.1712 60.4756 11.5996C60.1566 12.0234 59.9971 12.6159 59.9971 13.377C59.9971 14.1426 60.1566 14.7373 60.4756 15.1611ZM71.7686 17V8.81738H71.7275L69.1777 10.6084V8.94727L71.7549 7.13574H73.498V17H71.7686ZM79.5342 17.1982C78.3311 17.1982 77.3854 16.7402 76.6973 15.8242C76.0137 14.9036 75.6719 13.6481 75.6719 12.0576C75.6719 10.4762 76.016 9.22754 76.7041 8.31152C77.3923 7.39551 78.3356 6.9375 79.5342 6.9375C80.7327 6.9375 81.6738 7.39551 82.3574 8.31152C83.041 9.22298 83.3828 10.4694 83.3828 12.0508C83.3828 13.6367 83.041 14.8923 82.3574 15.8174C81.6738 16.738 80.7327 17.1982 79.5342 17.1982ZM79.5342 15.7559C80.1859 15.7559 80.6917 15.43 81.0518 14.7783C81.4163 14.1266 81.5986 13.2197 81.5986 12.0576C81.5986 10.9046 81.4163 10.0046 81.0518 9.35742C80.6872 8.70573 80.1813 8.37988 79.5342 8.37988C78.887 8.37988 78.3766 8.70573 78.0029 9.35742C77.6338 10.0091 77.4492 10.9069 77.4492 12.0508C77.4492 13.2129 77.6315 14.1221 77.9961 14.7783C78.3652 15.43 78.8779 15.7559 79.5342 15.7559ZM89.1523 17H87.5322V9.75391H89.6992L91.8389 14.8125H91.8936L94.0332 9.75391H96.166V17H94.5459V12.0439H94.4912L92.4473 16.665H91.2441L89.2002 12.0439H89.1523V17ZM99.3584 17H97.6904V9.75391H99.3584V14.5938H99.4131L102.564 9.75391H104.232V17H102.564V12.126H102.51L99.3584 17ZM110.515 17V13.9238H107.452V17H105.757V9.75391H107.452V12.6113H110.515V9.75391H112.21V17H110.515ZM114.869 17.0752C114.591 17.0752 114.356 16.9818 114.165 16.7949C113.978 16.6035 113.885 16.3688 113.885 16.0908C113.885 15.8174 113.978 15.585 114.165 15.3936C114.356 15.2021 114.591 15.1064 114.869 15.1064C115.143 15.1064 115.373 15.2021 115.56 15.3936C115.751 15.585 115.847 15.8174 115.847 16.0908C115.847 16.3688 115.751 16.6035 115.56 16.7949C115.373 16.9818 115.143 17.0752 114.869 17.0752Z" fill="white"/>
</svg>
