<svg width="165" height="50" viewBox="0 0 165 50" fill="none" xmlns="http://www.w3.org/2000/svg">
<path d="M0 20C0 8.9543 8.95431 0 20 0H145C156.046 0 165 8.95431 165 20V50H0V20Z" fill="#DDD0A4"/>
<path d="M31.1074 17.1436C29.9544 17.1436 29.0703 16.7767 28.4551 16.043C27.8444 15.3092 27.5391 14.2337 27.5391 12.8164C27.5391 11.472 27.6826 10.3828 27.9697 9.54883C28.2614 8.71029 28.6943 8.09505 29.2686 7.70312C29.8473 7.3112 30.5947 7.09928 31.5107 7.06738L32.2422 7.04688C32.6523 7.02865 33.0374 6.98763 33.3975 6.92383C33.7575 6.86003 34.0059 6.79167 34.1426 6.71875V8.0791C34.0605 8.15658 33.8486 8.23177 33.5068 8.30469C33.1696 8.37305 32.7822 8.41634 32.3447 8.43457L31.6406 8.45508C31.1712 8.46875 30.7747 8.53483 30.4512 8.65332C30.1322 8.76725 29.8656 8.94727 29.6514 9.19336C29.4417 9.4349 29.2777 9.72656 29.1592 10.0684C29.0407 10.4056 28.9495 10.8294 28.8857 11.3398H28.9404C29.1683 10.9023 29.4919 10.5697 29.9111 10.3418C30.3304 10.1094 30.8271 9.99316 31.4014 9.99316C32.3812 9.99316 33.1628 10.3076 33.7461 10.9365C34.3294 11.5609 34.6211 12.404 34.6211 13.4658C34.6211 14.6051 34.3066 15.5029 33.6777 16.1592C33.0534 16.8154 32.1966 17.1436 31.1074 17.1436ZM31.0869 15.7627C31.652 15.7627 32.0918 15.5667 32.4062 15.1748C32.7207 14.7783 32.8779 14.2201 32.8779 13.5C32.8779 12.8073 32.7207 12.2718 32.4062 11.8936C32.0918 11.5107 31.652 11.3193 31.0869 11.3193C30.5173 11.3193 30.0729 11.5107 29.7539 11.8936C29.4395 12.2718 29.2822 12.8073 29.2822 13.5C29.2822 14.2246 29.4395 14.7829 29.7539 15.1748C30.0684 15.5667 30.5127 15.7627 31.0869 15.7627ZM38.9824 10.9229C38.5085 10.9229 38.112 11.0869 37.793 11.415C37.4785 11.7386 37.3031 12.1556 37.2666 12.666H40.6504C40.6322 12.151 40.4704 11.7318 40.165 11.4082C39.8597 11.0846 39.4655 10.9229 38.9824 10.9229ZM40.6572 14.833H42.25C42.1406 15.5212 41.792 16.0794 41.2041 16.5078C40.6162 16.9316 39.8962 17.1436 39.0439 17.1436C37.9593 17.1436 37.1071 16.8109 36.4873 16.1455C35.8675 15.4756 35.5576 14.5618 35.5576 13.4043C35.5576 12.2559 35.8652 11.3353 36.4805 10.6426C37.1003 9.94987 37.932 9.60352 38.9756 9.60352C40.001 9.60352 40.8145 9.93392 41.416 10.5947C42.0176 11.251 42.3184 12.1305 42.3184 13.2334V13.7871H37.2529V13.8896C37.2529 14.473 37.417 14.9424 37.7451 15.2979C38.0778 15.6533 38.5221 15.8311 39.0781 15.8311C39.4701 15.8311 39.8073 15.7422 40.0898 15.5645C40.377 15.3822 40.5661 15.1383 40.6572 14.833ZM46.29 17.1436C45.3968 17.1436 44.6699 16.9385 44.1094 16.5283C43.5534 16.1182 43.2412 15.5576 43.1729 14.8467H44.8271C44.9001 15.1566 45.0618 15.3936 45.3125 15.5576C45.5677 15.7217 45.8936 15.8037 46.29 15.8037C46.7184 15.8037 47.0534 15.7148 47.2949 15.5371C47.5365 15.3548 47.6572 15.1133 47.6572 14.8125C47.6572 14.1745 47.2015 13.8555 46.29 13.8555H45.2578V12.6797H46.2559C47.0397 12.6797 47.4316 12.388 47.4316 11.8047C47.4316 11.5358 47.3337 11.3216 47.1377 11.1621C46.9417 11.0026 46.6523 10.9229 46.2695 10.9229C45.8958 10.9229 45.5905 11.0026 45.3535 11.1621C45.1211 11.3171 44.9821 11.5335 44.9365 11.8115H43.3232C43.3962 11.1279 43.6924 10.5902 44.2119 10.1982C44.736 9.80176 45.4219 9.60352 46.2695 9.60352C47.1719 9.60352 47.8669 9.78581 48.3545 10.1504C48.8467 10.5104 49.0928 11.0049 49.0928 11.6338C49.0928 12.0029 48.9902 12.3265 48.7852 12.6045C48.5801 12.8825 48.3044 13.0671 47.958 13.1582V13.2129C48.4092 13.3223 48.7533 13.5182 48.9902 13.8008C49.2272 14.0833 49.3457 14.4297 49.3457 14.8398C49.3457 15.5417 49.07 16.1022 48.5186 16.5215C47.9671 16.9362 47.2243 17.1436 46.29 17.1436ZM59.1758 16.1387C58.5423 16.8086 57.6901 17.1436 56.6191 17.1436C55.5482 17.1436 54.696 16.8086 54.0625 16.1387C53.429 15.4642 53.1123 14.5436 53.1123 13.377C53.1123 12.2148 53.4313 11.2965 54.0693 10.6221C54.7074 9.94303 55.5573 9.60352 56.6191 9.60352C57.6855 9.60352 58.5355 9.94303 59.1689 10.6221C59.807 11.2965 60.126 12.2148 60.126 13.377C60.126 14.5436 59.8092 15.4642 59.1758 16.1387ZM55.3203 15.1611C55.6393 15.585 56.0723 15.7969 56.6191 15.7969C57.166 15.7969 57.599 15.585 57.918 15.1611C58.237 14.7373 58.3965 14.1426 58.3965 13.377C58.3965 12.6159 58.237 12.0234 57.918 11.5996C57.599 11.1712 57.166 10.957 56.6191 10.957C56.0768 10.957 55.6439 11.1712 55.3203 11.5996C55.0013 12.0234 54.8418 12.6159 54.8418 13.377C54.8418 14.1426 55.0013 14.7373 55.3203 15.1611ZM66.2646 11.0664H63.0449V17H61.3496V9.75391H66.2646V11.0664ZM71.4463 9.63086C72.3669 9.63086 73.0983 9.96582 73.6406 10.6357C74.1829 11.3057 74.4541 12.2194 74.4541 13.377C74.4541 14.5299 74.1852 15.4414 73.6475 16.1113C73.1097 16.7812 72.3851 17.1162 71.4736 17.1162C70.9541 17.1162 70.4961 17 70.0996 16.7676C69.7031 16.5306 69.4046 16.207 69.2041 15.7969H69.1699V19.3857H67.4678V9.75391H69.1289V11.0049H69.1631C69.3727 10.5765 69.6758 10.2415 70.0723 10C70.4688 9.75391 70.9268 9.63086 71.4463 9.63086ZM70.9268 15.7217C71.4782 15.7217 71.9134 15.512 72.2324 15.0928C72.5514 14.6689 72.7109 14.097 72.7109 13.377C72.7109 12.6615 72.5492 12.0918 72.2256 11.668C71.9066 11.2441 71.4736 11.0322 70.9268 11.0322C70.3981 11.0322 69.972 11.2464 69.6484 11.6748C69.3249 12.1032 69.1608 12.6706 69.1562 13.377C69.1608 14.0879 69.3249 14.6576 69.6484 15.0859C69.972 15.5098 70.3981 15.7217 70.9268 15.7217ZM78.3438 15.8311C78.8314 15.8311 79.2415 15.6875 79.5742 15.4004C79.9115 15.1087 80.0801 14.7464 80.0801 14.3135V13.7598L78.4053 13.8623C77.9951 13.8896 77.6761 13.9922 77.4482 14.1699C77.2249 14.3431 77.1133 14.5732 77.1133 14.8604C77.1133 15.1566 77.2249 15.3936 77.4482 15.5713C77.6761 15.7445 77.9746 15.8311 78.3438 15.8311ZM77.8311 17.1162C77.1247 17.1162 76.5436 16.9134 76.0879 16.5078C75.6367 16.1022 75.4111 15.5758 75.4111 14.9287C75.4111 14.2861 75.6481 13.778 76.1221 13.4043C76.6006 13.0306 77.2819 12.8164 78.166 12.7617L80.0801 12.6523V12.1328C80.0801 11.7546 79.9593 11.4606 79.7178 11.251C79.4808 11.0413 79.1504 10.9365 78.7266 10.9365C78.3301 10.9365 78.0065 11.0254 77.7559 11.2031C77.5052 11.3809 77.3525 11.6224 77.2979 11.9277H75.7188C75.7552 11.2396 76.0492 10.6813 76.6006 10.2529C77.1566 9.81999 77.888 9.60352 78.7949 9.60352C79.6927 9.60352 80.4105 9.82227 80.9482 10.2598C81.4906 10.6973 81.7617 11.2806 81.7617 12.0098V17H80.1211V15.8447H80.0869C79.8818 16.2321 79.5719 16.542 79.1572 16.7744C78.7425 17.0023 78.3005 17.1162 77.8311 17.1162ZM88.0098 17V13.9238H84.9473V17H83.252V9.75391H84.9473V12.6113H88.0098V9.75391H89.7051V17H88.0098ZM92.9043 17H91.2363V9.75391H92.9043V14.5938H92.959L96.1104 9.75391H97.7783V17H96.1104V12.126H96.0557L92.9043 17ZM105.407 17H103.712V13.9443H103.63C103.188 14.3864 102.579 14.6074 101.805 14.6074C100.971 14.6074 100.319 14.3704 99.8496 13.8965C99.3848 13.418 99.1523 12.7731 99.1523 11.9619V9.75391H100.841V11.7705C100.841 12.2126 100.957 12.5589 101.189 12.8096C101.426 13.0602 101.759 13.1855 102.188 13.1855C102.867 13.1855 103.375 12.9759 103.712 12.5566V9.75391H105.407V17ZM110.062 10.9229C109.589 10.9229 109.192 11.0869 108.873 11.415C108.559 11.7386 108.383 12.1556 108.347 12.666H111.73C111.712 12.151 111.55 11.7318 111.245 11.4082C110.94 11.0846 110.546 10.9229 110.062 10.9229ZM111.737 14.833H113.33C113.221 15.5212 112.872 16.0794 112.284 16.5078C111.696 16.9316 110.976 17.1436 110.124 17.1436C109.039 17.1436 108.187 16.8109 107.567 16.1455C106.948 15.4756 106.638 14.5618 106.638 13.4043C106.638 12.2559 106.945 11.3353 107.561 10.6426C108.18 9.94987 109.012 9.60352 110.056 9.60352C111.081 9.60352 111.895 9.93392 112.496 10.5947C113.098 11.251 113.398 12.1305 113.398 13.2334V13.7871H108.333V13.8896C108.333 14.473 108.497 14.9424 108.825 15.2979C109.158 15.6533 109.602 15.8311 110.158 15.8311C110.55 15.8311 110.887 15.7422 111.17 15.5645C111.457 15.3822 111.646 15.1383 111.737 14.833ZM119.373 17V13.9238H116.311V17H114.615V9.75391H116.311V12.6113H119.373V9.75391H121.068V17H119.373ZM124.268 17H122.6V9.75391H124.268V14.5938H124.322L127.474 9.75391H129.142V17H127.474V12.126H127.419L124.268 17ZM132.334 17H130.666V9.75391H132.334V14.5938H132.389L135.54 9.75391H137.208V17H135.54V12.126H135.485L132.334 17ZM131.691 6.52051H132.785C132.79 6.90788 132.904 7.22461 133.127 7.4707C133.355 7.7168 133.653 7.83984 134.022 7.83984C134.392 7.83984 134.688 7.7168 134.911 7.4707C135.139 7.22461 135.255 6.90788 135.26 6.52051H136.354C136.354 7.18132 136.139 7.71452 135.711 8.12012C135.283 8.52116 134.72 8.72168 134.022 8.72168C133.325 8.72168 132.762 8.52116 132.334 8.12012C131.906 7.71452 131.691 7.18132 131.691 6.52051Z" fill="white"/>
</svg>
