<svg width="165" height="50" viewBox="0 0 165 50" fill="none" xmlns="http://www.w3.org/2000/svg">
<path d="M0 20C0 8.9543 8.95431 0 20 0H145C156.046 0 165 8.95431 165 20V50H0V20Z" fill="#DDD0A4"/>
<path d="M68.7266 10.0615C68.7266 9.15007 69.0547 8.40267 69.7109 7.81934C70.3672 7.23145 71.2057 6.9375 72.2266 6.9375C73.2064 6.9375 74.013 7.2041 74.6465 7.7373C75.2845 8.27051 75.6035 8.93815 75.6035 9.74023C75.6035 10.2917 75.4486 10.8135 75.1387 11.3057C74.8333 11.7933 74.3252 12.3949 73.6143 13.1104L71.1738 15.5234V15.5576H75.7539V17H68.8223V15.8105L72.4521 12.2012C73.0127 11.627 73.391 11.1781 73.5869 10.8545C73.7829 10.5309 73.8809 10.1846 73.8809 9.81543C73.8809 9.40527 73.7168 9.05892 73.3887 8.77637C73.0651 8.49382 72.6595 8.35254 72.1719 8.35254C71.6569 8.35254 71.2285 8.51432 70.8867 8.83789C70.5495 9.16146 70.3809 9.56706 70.3809 10.0547V10.082H68.7266V10.0615ZM81.5439 17V15.1338H76.6221V13.6162C77.4333 12.085 78.7982 9.9248 80.7168 7.13574H83.2256V13.6914H84.5518V15.1338H83.2256V17H81.5439ZM78.2217 13.6846V13.7324H81.5713V8.44141H81.5439C80.71 9.64909 80.0423 10.6471 79.541 11.4355C79.0397 12.224 78.5999 12.9736 78.2217 13.6846ZM86.5205 19.1123H84.9756L88.4756 7.13574H90.0205L86.5205 19.1123ZM91.2852 17L95.6123 8.6123V8.57812H90.4854V7.13574H97.3486V8.60547L93.1309 17H91.2852Z" fill="white"/>
</svg>
