<svg width="165" height="50" viewBox="0 0 165 50" fill="none" xmlns="http://www.w3.org/2000/svg">
<path d="M0 20C0 8.9543 8.95431 0 20 0H145C156.046 0 165 8.95431 165 20V50H0V20Z" fill="#DDD0A4"/>
<path d="M42.832 15.6875V11.0596H40.4668L40.2822 13.623C40.223 14.5208 40.0384 15.1908 39.7285 15.6328V15.6875H42.832ZM38.9287 18.8936H37.3701V15.6875H37.9443C38.4092 15.4141 38.6826 14.6963 38.7646 13.5342L39.0176 9.75391H44.5273V15.6875H45.6279V18.8936H44.0693V17H38.9287V18.8936ZM52.3271 16.1387C51.6937 16.8086 50.8415 17.1436 49.7705 17.1436C48.6995 17.1436 47.8473 16.8086 47.2139 16.1387C46.5804 15.4642 46.2637 14.5436 46.2637 13.377C46.2637 12.2148 46.5827 11.2965 47.2207 10.6221C47.8587 9.94303 48.7087 9.60352 49.7705 9.60352C50.8369 9.60352 51.6868 9.94303 52.3203 10.6221C52.9583 11.2965 53.2773 12.2148 53.2773 13.377C53.2773 14.5436 52.9606 15.4642 52.3271 16.1387ZM48.4717 15.1611C48.7907 15.585 49.2236 15.7969 49.7705 15.7969C50.3174 15.7969 50.7503 15.585 51.0693 15.1611C51.3883 14.7373 51.5479 14.1426 51.5479 13.377C51.5479 12.6159 51.3883 12.0234 51.0693 11.5996C50.7503 11.1712 50.3174 10.957 49.7705 10.957C49.2282 10.957 48.7952 11.1712 48.4717 11.5996C48.1527 12.0234 47.9932 12.6159 47.9932 13.377C47.9932 14.1426 48.1527 14.7373 48.4717 15.1611ZM57.1807 10.0615C57.1807 9.15007 57.5088 8.40267 58.165 7.81934C58.8213 7.23145 59.6598 6.9375 60.6807 6.9375C61.6605 6.9375 62.4671 7.2041 63.1006 7.7373C63.7386 8.27051 64.0576 8.93815 64.0576 9.74023C64.0576 10.2917 63.9027 10.8135 63.5928 11.3057C63.2874 11.7933 62.7793 12.3949 62.0684 13.1104L59.6279 15.5234V15.5576H64.208V17H57.2764V15.8105L60.9062 12.2012C61.4668 11.627 61.8451 11.1781 62.041 10.8545C62.237 10.5309 62.335 10.1846 62.335 9.81543C62.335 9.40527 62.1709 9.05892 61.8428 8.77637C61.5192 8.49382 61.1136 8.35254 60.626 8.35254C60.111 8.35254 59.6826 8.51432 59.3408 8.83789C59.0036 9.16146 58.835 9.56706 58.835 10.0547V10.082H57.1807V10.0615ZM70.1074 13.7529H65.6162V12.2354H70.1074V13.7529ZM74.3457 14.4023H74.3115L72.8076 17H70.9961L73.334 13.3838L71.0166 9.75391H72.9307L74.3936 12.2969H74.4277L75.8701 9.75391H77.7363L75.4053 13.3359L77.709 17H75.8496L74.3457 14.4023ZM85.5156 9.63086C86.4362 9.63086 87.1676 9.96582 87.71 10.6357C88.2523 11.3057 88.5234 12.2194 88.5234 13.377C88.5234 14.5299 88.2546 15.4414 87.7168 16.1113C87.179 16.7812 86.4544 17.1162 85.543 17.1162C85.0234 17.1162 84.5654 17 84.1689 16.7676C83.7725 16.5306 83.474 16.207 83.2734 15.7969H83.2393V19.3857H81.5371V9.75391H83.1982V11.0049H83.2324C83.4421 10.5765 83.7451 10.2415 84.1416 10C84.5381 9.75391 84.9961 9.63086 85.5156 9.63086ZM84.9961 15.7217C85.5475 15.7217 85.9827 15.512 86.3018 15.0928C86.6208 14.6689 86.7803 14.097 86.7803 13.377C86.7803 12.6615 86.6185 12.0918 86.2949 11.668C85.9759 11.2441 85.543 11.0322 84.9961 11.0322C84.4674 11.0322 84.0413 11.2464 83.7178 11.6748C83.3942 12.1032 83.2301 12.6706 83.2256 13.377C83.2301 14.0879 83.3942 14.6576 83.7178 15.0859C84.0413 15.5098 84.4674 15.7217 84.9961 15.7217ZM92.4131 15.8311C92.9007 15.8311 93.3109 15.6875 93.6436 15.4004C93.9808 15.1087 94.1494 14.7464 94.1494 14.3135V13.7598L92.4746 13.8623C92.0645 13.8896 91.7454 13.9922 91.5176 14.1699C91.2943 14.3431 91.1826 14.5732 91.1826 14.8604C91.1826 15.1566 91.2943 15.3936 91.5176 15.5713C91.7454 15.7445 92.0439 15.8311 92.4131 15.8311ZM91.9004 17.1162C91.194 17.1162 90.613 16.9134 90.1572 16.5078C89.7061 16.1022 89.4805 15.5758 89.4805 14.9287C89.4805 14.2861 89.7174 13.778 90.1914 13.4043C90.6699 13.0306 91.3512 12.8164 92.2354 12.7617L94.1494 12.6523V12.1328C94.1494 11.7546 94.0286 11.4606 93.7871 11.251C93.5501 11.0413 93.2197 10.9365 92.7959 10.9365C92.3994 10.9365 92.0758 11.0254 91.8252 11.2031C91.5745 11.3809 91.4219 11.6224 91.3672 11.9277H89.7881C89.8245 11.2396 90.1185 10.6813 90.6699 10.2529C91.2259 9.81999 91.9574 9.60352 92.8643 9.60352C93.762 9.60352 94.4798 9.82227 95.0176 10.2598C95.5599 10.6973 95.8311 11.2806 95.8311 12.0098V17H94.1904V15.8447H94.1562C93.9512 16.2321 93.6413 16.542 93.2266 16.7744C92.8118 17.0023 92.3698 17.1162 91.9004 17.1162ZM100.076 17.1436C99.1829 17.1436 98.4561 16.9385 97.8955 16.5283C97.3395 16.1182 97.0273 15.5576 96.959 14.8467H98.6133C98.6862 15.1566 98.848 15.3936 99.0986 15.5576C99.3538 15.7217 99.6797 15.8037 100.076 15.8037C100.505 15.8037 100.84 15.7148 101.081 15.5371C101.323 15.3548 101.443 15.1133 101.443 14.8125C101.443 14.1745 100.988 13.8555 100.076 13.8555H99.0439V12.6797H100.042C100.826 12.6797 101.218 12.388 101.218 11.8047C101.218 11.5358 101.12 11.3216 100.924 11.1621C100.728 11.0026 100.438 10.9229 100.056 10.9229C99.682 10.9229 99.3766 11.0026 99.1396 11.1621C98.9072 11.3171 98.7682 11.5335 98.7227 11.8115H97.1094C97.1823 11.1279 97.4785 10.5902 97.998 10.1982C98.5221 9.80176 99.208 9.60352 100.056 9.60352C100.958 9.60352 101.653 9.78581 102.141 10.1504C102.633 10.5104 102.879 11.0049 102.879 11.6338C102.879 12.0029 102.776 12.3265 102.571 12.6045C102.366 12.8825 102.09 13.0671 101.744 13.1582V13.2129C102.195 13.3223 102.539 13.5182 102.776 13.8008C103.013 14.0833 103.132 14.4297 103.132 14.8398C103.132 15.5417 102.856 16.1022 102.305 16.5215C101.753 16.9362 101.01 17.1436 100.076 17.1436ZM112.107 11.0664H108.888V17H107.192V9.75391H112.107V11.0664ZM118.882 16.1387C118.248 16.8086 117.396 17.1436 116.325 17.1436C115.254 17.1436 114.402 16.8086 113.769 16.1387C113.135 15.4642 112.818 14.5436 112.818 13.377C112.818 12.2148 113.137 11.2965 113.775 10.6221C114.413 9.94303 115.263 9.60352 116.325 9.60352C117.392 9.60352 118.242 9.94303 118.875 10.6221C119.513 11.2965 119.832 12.2148 119.832 13.377C119.832 14.5436 119.515 15.4642 118.882 16.1387ZM115.026 15.1611C115.345 15.585 115.778 15.7969 116.325 15.7969C116.872 15.7969 117.305 15.585 117.624 15.1611C117.943 14.7373 118.103 14.1426 118.103 13.377C118.103 12.6159 117.943 12.0234 117.624 11.5996C117.305 11.1712 116.872 10.957 116.325 10.957C115.783 10.957 115.35 11.1712 115.026 11.5996C114.707 12.0234 114.548 12.6159 114.548 13.377C114.548 14.1426 114.707 14.7373 115.026 15.1611ZM125.766 15.6875V11.0596H123.4L123.216 13.623C123.157 14.5208 122.972 15.1908 122.662 15.6328V15.6875H125.766ZM121.862 18.8936H120.304V15.6875H120.878C121.343 15.4141 121.616 14.6963 121.698 13.5342L121.951 9.75391H127.461V15.6875H128.562V18.8936H127.003V17H121.862V18.8936Z" fill="white"/>
</svg>
