<svg width="48" height="62" viewBox="0 0 48 62" fill="none" xmlns="http://www.w3.org/2000/svg">
<path d="M47.0811 15.0631L32.5502 0.532207C32.211 0.192902 31.7481 0 31.2656 0H5.83594C2.83124 0 0.386719 2.44452 0.386719 5.44922V56.5508C0.386719 59.5555 2.83124 62 5.83594 62H42.1641C45.1688 62 47.6133 59.5555 47.6133 56.5508V16.3477C47.6133 15.8524 47.4054 15.3873 47.0811 15.0631ZM33.082 6.20157L41.4117 14.5312H34.8984C33.8969 14.5312 33.082 13.7164 33.082 12.7148V6.20157ZM42.1641 58.3672H5.83594C4.83437 58.3672 4.01953 57.5523 4.01953 56.5508V5.44922C4.01953 4.44765 4.83437 3.63281 5.83594 3.63281H29.4492V12.7148C29.4492 15.7195 31.8937 18.1641 34.8984 18.1641H43.9805V56.5508C43.9805 57.5523 43.1656 58.3672 42.1641 58.3672Z" fill="black"/>
<path d="M34.8984 25.6719H13.1016C12.0984 25.6719 11.2852 26.4851 11.2852 27.4883C11.2852 28.4914 12.0984 29.3047 13.1016 29.3047H34.8984C35.9016 29.3047 36.7148 28.4914 36.7148 27.4883C36.7148 26.4851 35.9016 25.6719 34.8984 25.6719Z" fill="#DDD0A4"/>
<path d="M34.8984 32.9375H13.1016C12.0984 32.9375 11.2852 33.7508 11.2852 34.7539C11.2852 35.757 12.0984 36.5703 13.1016 36.5703H34.8984C35.9016 36.5703 36.7148 35.757 36.7148 34.7539C36.7148 33.7508 35.9016 32.9375 34.8984 32.9375Z" fill="#DDD0A4"/>
<path d="M34.8984 40.2031H13.1016C12.0984 40.2031 11.2852 41.0164 11.2852 42.0195C11.2852 43.0227 12.0984 43.8359 13.1016 43.8359H34.8984C35.9016 43.8359 36.7148 43.0227 36.7148 42.0195C36.7148 41.0164 35.9016 40.2031 34.8984 40.2031Z" fill="#DDD0A4"/>
<path d="M27.6328 47.4688H13.1016C12.0984 47.4688 11.2852 48.282 11.2852 49.2852C11.2852 50.2883 12.0984 51.1016 13.1016 51.1016H27.6328C28.636 51.1016 29.4492 50.2883 29.4492 49.2852C29.4492 48.282 28.636 47.4688 27.6328 47.4688Z" fill="#DDD0A4"/>
</svg>
