<svg width="401" height="1101" viewBox="0 0 401 1101" fill="none" xmlns="http://www.w3.org/2000/svg">
<g filter="url(#filter0_d_60_2198)">
<rect x="18" y="16" width="365" height="1065" rx="10" fill="white"/>
<path d="M198 88.17L193.83 84L192.41 85.41L198 91L210 79L208.59 77.59L198 88.17Z" fill="#A89060"/>
<path d="M198 149.17L193.83 145L192.41 146.41L198 152L210 140L208.59 138.59L198 149.17Z" fill="#A89060"/>
<path d="M198 208.17L193.83 204L192.41 205.41L198 211L210 199L208.59 197.59L198 208.17Z" fill="#A89060"/>
<path d="M198 265.17L193.83 261L192.41 262.41L198 268L210 256L208.59 254.59L198 265.17Z" fill="#A89060"/>
<path d="M198 316.17L193.83 312L192.41 313.41L198 319L210 307L208.59 305.59L198 316.17Z" fill="#A89060"/>
<path d="M198 384.17L193.83 380L192.41 381.41L198 387L210 375L208.59 373.59L198 384.17Z" fill="#A89060"/>
<path d="M198 445.17L193.83 441L192.41 442.41L198 448L210 436L208.59 434.59L198 445.17Z" fill="#A89060"/>
<path d="M198 490.17L193.83 486L192.41 487.41L198 493L210 481L208.59 479.59L198 490.17Z" fill="#A89060"/>
<path d="M198 532.17L193.83 528L192.41 529.41L198 535L210 523L208.59 521.59L198 532.17Z" fill="#A89060"/>
<line x1="190" y1="579.25" x2="212" y2="579.25" stroke="black" stroke-width="1.5"/>
<line x1="190" y1="612.25" x2="212" y2="612.25" stroke="black" stroke-width="1.5"/>
<line x1="190" y1="851.25" x2="212" y2="851.25" stroke="black" stroke-width="1.5"/>
<g filter="url(#filter1_d_60_2198)">
<rect x="118" y="990" width="165" height="59" rx="6" fill="white"/>
<path d="M174.125 1019.12L179.773 1025H177.844L172.641 1019.52H172.578V1025H171.172V1013.73H172.578V1018.92H172.641L177.484 1013.73H179.25L174.125 1019.12ZM181.844 1025.08C181.562 1025.08 181.354 1025.04 181.219 1024.98V1023.71C181.385 1023.75 181.594 1023.77 181.844 1023.77C182.266 1023.77 182.622 1023.68 182.914 1023.49C183.206 1023.3 183.464 1023.01 183.688 1022.59L179.836 1013.73H181.336L184.359 1021.03H184.484L187.438 1013.73H188.898L185.445 1021.77C184.909 1023.02 184.38 1023.89 183.859 1024.37C183.344 1024.84 182.672 1025.08 181.844 1025.08ZM199.102 1025H197.711V1015.01H191.68V1025H190.266V1013.73H199.102V1025ZM209.062 1025V1016.03H208.938L202.844 1025H201.453V1013.73H202.844V1022.73H202.969L209.062 1013.73H210.453V1025H209.062ZM217.055 1025H215.648V1014.99H212.094V1013.73H220.609V1014.99H217.055V1025ZM222.25 1025V1013.73H223.656V1017.91H226.414C227.477 1017.91 228.346 1018.24 229.023 1018.91C229.701 1019.57 230.039 1020.42 230.039 1021.46C230.039 1022.5 229.703 1023.35 229.031 1024.02C228.359 1024.67 227.492 1025 226.43 1025H222.25ZM223.656 1023.73H226.062C226.87 1023.73 227.492 1023.54 227.93 1023.14C228.372 1022.74 228.594 1022.18 228.594 1021.46C228.594 1020.73 228.372 1020.17 227.93 1019.77C227.492 1019.37 226.87 1019.17 226.062 1019.17H223.656V1023.73Z" fill="black"/>
<rect x="118.5" y="990.5" width="164" height="58" rx="5.5" stroke="#4A607A"/>
</g>
<path d="M142.52 933V918.973H142.449L138.078 922.043V919.195L142.496 916.09H145.484V933H142.52ZM155.832 933.34C153.77 933.34 152.148 932.555 150.969 930.984C149.797 929.406 149.211 927.254 149.211 924.527C149.211 921.816 149.801 919.676 150.98 918.105C152.16 916.535 153.777 915.75 155.832 915.75C157.887 915.75 159.5 916.535 160.672 918.105C161.844 919.668 162.43 921.805 162.43 924.516C162.43 927.234 161.844 929.387 160.672 930.973C159.5 932.551 157.887 933.34 155.832 933.34ZM155.832 930.867C156.949 930.867 157.816 930.309 158.434 929.191C159.059 928.074 159.371 926.52 159.371 924.527C159.371 922.551 159.059 921.008 158.434 919.898C157.809 918.781 156.941 918.223 155.832 918.223C154.723 918.223 153.848 918.781 153.207 919.898C152.574 921.016 152.258 922.555 152.258 924.516C152.258 926.508 152.57 928.066 153.195 929.191C153.828 930.309 154.707 930.867 155.832 930.867ZM175.754 933.34C174.012 933.34 172.566 932.867 171.418 931.922C170.27 930.969 169.664 929.742 169.602 928.242H172.438C172.531 929.023 172.887 929.66 173.504 930.152C174.129 930.645 174.887 930.891 175.777 930.891C176.785 930.891 177.602 930.574 178.227 929.941C178.859 929.309 179.176 928.492 179.176 927.492C179.176 926.477 178.859 925.648 178.227 925.008C177.602 924.359 176.793 924.035 175.801 924.035C175.113 924.035 174.484 924.184 173.914 924.48C173.352 924.777 172.914 925.191 172.602 925.723H169.859L170.738 916.09H181.098V918.562H173.129L172.695 923.508H172.766C173.117 922.961 173.625 922.531 174.289 922.219C174.953 921.898 175.699 921.738 176.527 921.738C178.145 921.738 179.477 922.273 180.523 923.344C181.57 924.406 182.094 925.762 182.094 927.41C182.094 929.168 181.504 930.598 180.324 931.699C179.152 932.793 177.629 933.34 175.754 933.34ZM190.52 933.34C188.457 933.34 186.836 932.555 185.656 930.984C184.484 929.406 183.898 927.254 183.898 924.527C183.898 921.816 184.488 919.676 185.668 918.105C186.848 916.535 188.465 915.75 190.52 915.75C192.574 915.75 194.188 916.535 195.359 918.105C196.531 919.668 197.117 921.805 197.117 924.516C197.117 927.234 196.531 929.387 195.359 930.973C194.188 932.551 192.574 933.34 190.52 933.34ZM190.52 930.867C191.637 930.867 192.504 930.309 193.121 929.191C193.746 928.074 194.059 926.52 194.059 924.527C194.059 922.551 193.746 921.008 193.121 919.898C192.496 918.781 191.629 918.223 190.52 918.223C189.41 918.223 188.535 918.781 187.895 919.898C187.262 921.016 186.945 922.555 186.945 924.516C186.945 926.508 187.258 928.066 187.883 929.191C188.516 930.309 189.395 930.867 190.52 930.867ZM205.754 933.34C203.691 933.34 202.07 932.555 200.891 930.984C199.719 929.406 199.133 927.254 199.133 924.527C199.133 921.816 199.723 919.676 200.902 918.105C202.082 916.535 203.699 915.75 205.754 915.75C207.809 915.75 209.422 916.535 210.594 918.105C211.766 919.668 212.352 921.805 212.352 924.516C212.352 927.234 211.766 929.387 210.594 930.973C209.422 932.551 207.809 933.34 205.754 933.34ZM205.754 930.867C206.871 930.867 207.738 930.309 208.355 929.191C208.98 928.074 209.293 926.52 209.293 924.527C209.293 922.551 208.98 921.008 208.355 919.898C207.73 918.781 206.863 918.223 205.754 918.223C204.645 918.223 203.77 918.781 203.129 919.898C202.496 921.016 202.18 922.555 202.18 924.516C202.18 926.508 202.492 928.066 203.117 929.191C203.75 930.309 204.629 930.867 205.754 930.867ZM219.77 916.09H226.344C228.031 916.09 229.402 916.613 230.457 917.66C231.512 918.699 232.039 920.062 232.039 921.75C232.039 923.43 231.496 924.793 230.41 925.84C229.332 926.887 227.934 927.41 226.215 927.41H222.793V933H219.77V916.09ZM222.793 918.562V924.973H225.535C226.621 924.973 227.465 924.691 228.066 924.129C228.668 923.566 228.969 922.773 228.969 921.75C228.969 920.734 228.668 919.949 228.066 919.395C227.473 918.84 226.633 918.562 225.547 918.562H222.793ZM236.434 933.141C235.824 933.141 235.398 933.086 235.156 932.977V930.457C235.445 930.52 235.777 930.551 236.152 930.551C236.73 930.551 237.219 930.441 237.617 930.223C238.023 929.996 238.379 929.629 238.684 929.121L233.012 916.09H236.211L240.219 926.051H240.371L244.215 916.09H247.391L242.211 928.16C241.688 929.379 241.164 930.34 240.641 931.043C240.125 931.746 239.527 932.273 238.848 932.625C238.176 932.969 237.371 933.141 236.434 933.141ZM261.699 927.762C261.699 929.324 261.172 930.59 260.117 931.559C259.062 932.52 257.691 933 256.004 933H249.348V916.09H260.094V918.633H252.371V922.582H255.91C257.621 922.582 259.012 923.062 260.082 924.023C261.16 924.977 261.699 926.223 261.699 927.762ZM252.371 930.516H255.242C256.312 930.516 257.141 930.277 257.727 929.801C258.312 929.324 258.605 928.645 258.605 927.762C258.605 926.871 258.312 926.188 257.727 925.711C257.141 925.234 256.309 924.996 255.23 924.996H252.371V930.516ZM266.07 933.129C265.594 933.129 265.191 932.969 264.863 932.648C264.543 932.32 264.383 931.918 264.383 931.441C264.383 930.973 264.543 930.574 264.863 930.246C265.191 929.918 265.594 929.754 266.07 929.754C266.539 929.754 266.934 929.918 267.254 930.246C267.582 930.574 267.746 930.973 267.746 931.441C267.746 931.918 267.582 932.32 267.254 932.648C266.934 932.969 266.539 933.129 266.07 933.129Z" fill="black"/>
</g>
<defs>
<filter id="filter0_d_60_2198" x="0" y="0" width="401" height="1101" filterUnits="userSpaceOnUse" color-interpolation-filters="sRGB">
<feFlood flood-opacity="0" result="BackgroundImageFix"/>
<feColorMatrix in="SourceAlpha" type="matrix" values="0 0 0 0 0 0 0 0 0 0 0 0 0 0 0 0 0 0 127 0" result="hardAlpha"/>
<feOffset dy="2"/>
<feGaussianBlur stdDeviation="9"/>
<feColorMatrix type="matrix" values="0 0 0 0 0.160784 0 0 0 0 0.160784 0 0 0 0 0.160784 0 0 0 0.1 0"/>
<feBlend mode="normal" in2="BackgroundImageFix" result="effect1_dropShadow_60_2198"/>
<feBlend mode="normal" in="SourceGraphic" in2="effect1_dropShadow_60_2198" result="shape"/>
</filter>
<filter id="filter1_d_60_2198" x="100" y="974" width="201" height="95" filterUnits="userSpaceOnUse" color-interpolation-filters="sRGB">
<feFlood flood-opacity="0" result="BackgroundImageFix"/>
<feColorMatrix in="SourceAlpha" type="matrix" values="0 0 0 0 0 0 0 0 0 0 0 0 0 0 0 0 0 0 127 0" result="hardAlpha"/>
<feOffset dy="2"/>
<feGaussianBlur stdDeviation="9"/>
<feColorMatrix type="matrix" values="0 0 0 0 0.160784 0 0 0 0 0.160784 0 0 0 0 0.160784 0 0 0 0.1 0"/>
<feBlend mode="normal" in2="BackgroundImageFix" result="effect1_dropShadow_60_2198"/>
<feBlend mode="normal" in="SourceGraphic" in2="effect1_dropShadow_60_2198" result="shape"/>
</filter>
</defs>
</svg>
